<svg width="40" height="40" viewBox="0 0 40 40" fill="none" xmlns="http://www.w3.org/2000/svg">
<g id="briefcase-01">
<path id="Icon" d="M26.6667 11.6667C26.6667 10.1167 26.6667 9.34174 26.4963 8.7059C26.034 6.98044 24.6863 5.63271 22.9608 5.17037C22.325 5 21.55 5 20 5C18.4501 5 17.6751 5 17.0393 5.17037C15.3138 5.63271 13.9661 6.98044 13.5037 8.7059C13.3334 9.34174 13.3334 10.1167 13.3334 11.6667M8.66671 35H31.3334C33.2002 35 34.1336 35 34.8467 34.6367C35.4739 34.3171 35.9838 33.8072 36.3034 33.18C36.6667 32.4669 36.6667 31.5335 36.6667 29.6667V17C36.6667 15.1332 36.6667 14.1997 36.3034 13.4867C35.9838 12.8595 35.4739 12.3496 34.8467 12.03C34.1336 11.6667 33.2002 11.6667 31.3334 11.6667H8.66671C6.79987 11.6667 5.86644 11.6667 5.15341 12.03C4.5262 12.3496 4.01626 12.8595 3.69669 13.4867C3.33337 14.1997 3.33337 15.1332 3.33337 17V29.6667C3.33337 31.5335 3.33337 32.4669 3.69669 33.18C4.01626 33.8072 4.5262 34.3171 5.15341 34.6367C5.86644 35 6.79987 35 8.66671 35Z" stroke="#7F56D9" stroke-width="2.5" stroke-linecap="round" stroke-linejoin="round"/>
</g>
</svg>
