<svg width="40" height="40" viewBox="0 0 40 40" fill="none" xmlns="http://www.w3.org/2000/svg">
<g id="credit-card-edit">
<path id="Icon" d="M3.33337 16.6663H36.6667V13.6663C36.6667 11.7995 36.6667 10.8661 36.3034 10.153C35.9838 9.52584 35.4739 9.0159 34.8467 8.69632C34.1336 8.33301 33.2002 8.33301 31.3334 8.33301H8.66671C6.79987 8.33301 5.86645 8.33301 5.15341 8.69632C4.5262 9.0159 4.01626 9.52583 3.69669 10.153C3.33337 10.8661 3.33337 11.7995 3.33337 13.6663V26.333C3.33337 28.1998 3.33337 29.1333 3.69669 29.8463C4.01626 30.4735 4.5262 30.9834 5.15341 31.303C5.86644 31.6663 6.79987 31.6663 8.66671 31.6663H18.3334M24.1667 34.9997L27.5417 34.3247C27.8359 34.2658 27.9831 34.2364 28.1203 34.1826C28.2421 34.1348 28.3578 34.0729 28.4651 33.998C28.586 33.9137 28.6921 33.8076 28.9043 33.5954L35.8334 26.6663C36.7539 25.7459 36.7539 24.2535 35.8334 23.333C34.9129 22.4125 33.4205 22.4125 32.5 23.333L25.571 30.2621C25.3588 30.4743 25.2527 30.5804 25.1683 30.7013C25.0935 30.8086 25.0316 30.9243 24.9838 31.0461C24.93 31.1833 24.9006 31.3305 24.8417 31.6247L24.1667 34.9997Z" stroke="#7F56D9" stroke-width="2.5" stroke-linecap="round" stroke-linejoin="round"/>
</g>
</svg>
