<svg width="40" height="40" viewBox="0 0 40 40" fill="none" xmlns="http://www.w3.org/2000/svg">
<g id="credit-card-x">
<path id="Icon" d="M27.5 26.6663L35.8334 34.9997M35.8334 26.6663L27.5 34.9997M36.6667 16.6663H3.33337M36.6667 19.9997V13.6663C36.6667 11.7995 36.6667 10.8661 36.3034 10.153C35.9838 9.52584 35.4739 9.0159 34.8467 8.69632C34.1336 8.33301 33.2002 8.33301 31.3334 8.33301H8.66671C6.79987 8.33301 5.86645 8.33301 5.15341 8.69632C4.5262 9.0159 4.01626 9.52583 3.69669 10.153C3.33337 10.8661 3.33337 11.7995 3.33337 13.6663V26.333C3.33337 28.1998 3.33337 29.1333 3.69669 29.8463C4.01626 30.4735 4.5262 30.9834 5.15341 31.303C5.86644 31.6663 6.79987 31.6663 8.66671 31.6663H20" stroke="#7F56D9" stroke-width="2.5" stroke-linecap="round" stroke-linejoin="round"/>
</g>
</svg>
