<svg width="40" height="40" viewBox="0 0 40 40" fill="none" xmlns="http://www.w3.org/2000/svg">
<g id="file-07">
<path id="Icon" d="M23.3333 3.78223V10.6665C23.3333 11.5999 23.3333 12.0666 23.5149 12.4231C23.6747 12.7367 23.9297 12.9917 24.2433 13.1515C24.5998 13.3331 25.0665 13.3331 26 13.3331H32.8842M13.3333 24.9997V29.9997M26.6666 21.6663V29.9997M20 17.4997V29.9997M33.3333 16.6467V28.6663C33.3333 31.4666 33.3333 32.8667 32.7883 33.9363C32.309 34.8771 31.5441 35.642 30.6032 36.1214C29.5337 36.6663 28.1336 36.6663 25.3333 36.6663H14.6666C11.8664 36.6663 10.4662 36.6663 9.39667 36.1214C8.45586 35.642 7.69096 34.8771 7.21159 33.9363C6.66663 32.8667 6.66663 31.4666 6.66663 28.6663V11.333C6.66663 8.53275 6.66663 7.13261 7.21159 6.06306C7.69096 5.12225 8.45586 4.35734 9.39667 3.87798C10.4662 3.33301 11.8664 3.33301 14.6666 3.33301H20.0196C21.2425 3.33301 21.854 3.33301 22.4295 3.47116C22.9396 3.59364 23.4274 3.79566 23.8747 4.06981C24.3793 4.37902 24.8117 4.8114 25.6764 5.67615L30.9901 10.9899C31.8549 11.8546 32.2873 12.287 32.5965 12.7916C32.8706 13.2389 33.0727 13.7267 33.1951 14.2368C33.3333 14.8123 33.3333 15.4238 33.3333 16.6467Z" stroke="#7F56D9" stroke-width="2.5" stroke-linecap="round" stroke-linejoin="round"/>
</g>
</svg>
