<svg width="40" height="40" viewBox="0 0 40 40" fill="none" xmlns="http://www.w3.org/2000/svg">
<g id="file-check-02">
<path id="Icon" d="M33.3334 20.833V11.333C33.3334 8.53275 33.3334 7.13261 32.7884 6.06306C32.309 5.12224 31.5441 4.35734 30.6033 3.87798C29.5337 3.33301 28.1336 3.33301 25.3334 3.33301H14.6667C11.8664 3.33301 10.4663 3.33301 9.39673 3.87798C8.45592 4.35734 7.69102 5.12224 7.21165 6.06306C6.66669 7.13261 6.66669 8.53275 6.66669 11.333V28.6663C6.66669 31.4666 6.66669 32.8667 7.21165 33.9363C7.69102 34.8771 8.45592 35.642 9.39673 36.1214C10.4663 36.6663 11.8664 36.6663 14.6667 36.6663H20M23.3334 18.333H13.3334M16.6667 24.9997H13.3334M26.6667 11.6663H13.3334M24.1667 31.6663L27.5 34.9997L35 27.4997" stroke="#7F56D9" stroke-width="2.5" stroke-linecap="round" stroke-linejoin="round"/>
</g>
</svg>
