<svg width="40" height="40" viewBox="0 0 40 40" fill="none" xmlns="http://www.w3.org/2000/svg">
<g id="file-plus-02">
<path id="Icon" d="M33.3333 17.4997V11.333C33.3333 8.53275 33.3333 7.13261 32.7883 6.06306C32.309 5.12224 31.5441 4.35734 30.6032 3.87798C29.5337 3.33301 28.1336 3.33301 25.3333 3.33301H14.6666C11.8664 3.33301 10.4662 3.33301 9.39667 3.87798C8.45586 4.35734 7.69096 5.12224 7.21159 6.06306C6.66663 7.13261 6.66663 8.53275 6.66663 11.333V28.6663C6.66663 31.4666 6.66663 32.8667 7.21159 33.9363C7.69096 34.8771 8.45586 35.642 9.39667 36.1214C10.4662 36.6663 11.8664 36.6663 14.6666 36.6663H20M23.3333 18.333H13.3333M16.6666 24.9997H13.3333M26.6666 11.6663H13.3333M30 34.9997V24.9997M25 29.9997H35" stroke="#7F56D9" stroke-width="2.5" stroke-linecap="round" stroke-linejoin="round"/>
</g>
</svg>
