<svg width="40" height="40" viewBox="0 0 40 40" fill="none" xmlns="http://www.w3.org/2000/svg">
<g id="user-square">
<path id="Icon" d="M6.66675 36.3621C7.67104 36.6663 9.02753 36.6663 11.3334 36.6663H28.6667C30.9726 36.6663 32.329 36.6663 33.3333 36.3621M6.66675 36.3621C6.45141 36.2968 6.25226 36.2176 6.06342 36.1214C5.12261 35.642 4.35771 34.8771 3.87834 33.9363C3.33337 32.8667 3.33337 31.4666 3.33337 28.6663V11.333C3.33337 8.53275 3.33337 7.13261 3.87834 6.06306C4.35771 5.12225 5.12261 4.35734 6.06342 3.87798C7.13298 3.33301 8.53311 3.33301 11.3334 3.33301H28.6667C31.467 3.33301 32.8671 3.33301 33.9367 3.87798C34.8775 4.35734 35.6424 5.12225 36.1217 6.06306C36.6667 7.13261 36.6667 8.53275 36.6667 11.333V28.6663C36.6667 31.4666 36.6667 32.8667 36.1217 33.9363C35.6424 34.8771 34.8775 35.642 33.9367 36.1214C33.7478 36.2176 33.5487 36.2968 33.3333 36.3621M6.66675 36.3621C6.6673 35.0132 6.67538 34.2994 6.79481 33.6991C7.32085 31.0545 9.38817 28.9872 12.0328 28.4611C12.6768 28.333 13.4512 28.333 15 28.333H25C26.5489 28.333 27.3233 28.333 27.9673 28.4611C30.6119 28.9872 32.6792 31.0545 33.2053 33.6991C33.3247 34.2994 33.3328 35.0132 33.3333 36.3621M26.6667 15.833C26.6667 19.5149 23.6819 22.4997 20 22.4997C16.3181 22.4997 13.3334 19.5149 13.3334 15.833C13.3334 12.1511 16.3181 9.16634 20 9.16634C23.6819 9.16634 26.6667 12.1511 26.6667 15.833Z" stroke="#7F56D9" stroke-width="2.5" stroke-linecap="round" stroke-linejoin="round"/>
</g>
</svg>
