<svg width="40" height="40" viewBox="0 0 40 40" fill="none" xmlns="http://www.w3.org/2000/svg">
<g id="users-01">
<path id="Icon" d="M36.6667 35V31.6667C36.6667 28.5603 34.5421 25.9501 31.6667 25.21M25.8334 5.4846C28.2766 6.47358 30 8.86885 30 11.6667C30 14.4645 28.2766 16.8598 25.8334 17.8487M28.3334 35C28.3334 31.8937 28.3334 30.3406 27.8259 29.1154C27.1493 27.4819 25.8515 26.1841 24.2179 25.5075C22.9928 25 21.4397 25 18.3334 25H13.3334C10.2271 25 8.67396 25 7.44882 25.5075C5.8153 26.1841 4.51747 27.4819 3.84084 29.1154C3.33337 30.3406 3.33337 31.8937 3.33337 35M22.5 11.6667C22.5 15.3486 19.5153 18.3333 15.8334 18.3333C12.1515 18.3333 9.16671 15.3486 9.16671 11.6667C9.16671 7.98477 12.1515 5 15.8334 5C19.5153 5 22.5 7.98477 22.5 11.6667Z" stroke="#7F56D9" stroke-width="2.5" stroke-linecap="round" stroke-linejoin="round"/>
</g>
</svg>
