<svg width="20" height="20" viewBox="0 0 20 20" fill="none" xmlns="http://www.w3.org/2000/svg">
<g id="building-06">
<path id="Icon" d="M9.16675 9.16667H5.16675C4.23333 9.16667 3.76662 9.16667 3.4101 9.34832C3.09649 9.50811 2.84153 9.76308 2.68174 10.0767C2.50008 10.4332 2.50008 10.8999 2.50008 11.8333V17.5M17.5001 17.5V5.16667C17.5001 4.23325 17.5001 3.76654 17.3184 3.41002C17.1586 3.09641 16.9037 2.84144 16.5901 2.68166C16.2335 2.5 15.7668 2.5 14.8334 2.5H11.8334C10.9 2.5 10.4333 2.5 10.0768 2.68166C9.76316 2.84144 9.50819 3.09641 9.3484 3.41002C9.16675 3.76654 9.16675 4.23325 9.16675 5.16667V17.5M18.3334 17.5H1.66675M12.0834 5.83333H14.5834M12.0834 9.16667H14.5834M12.0834 12.5H14.5834" stroke="white" stroke-width="1.66667" stroke-linecap="round" stroke-linejoin="round"/>
</g>
</svg>
