<svg width="64" height="64" viewBox="0 0 64 64" fill="none" xmlns="http://www.w3.org/2000/svg">
<g id="file-04">
<path id="Icon" d="M37.3333 6.05254V17.0673C37.3333 18.5608 37.3333 19.3075 37.6239 19.878C37.8796 20.3797 38.2876 20.7877 38.7893 21.0433C39.3597 21.334 40.1065 21.334 41.6 21.334H52.6147M53.3333 26.6359V45.8673C53.3333 50.3477 53.3333 52.5879 52.4613 54.2992C51.6944 55.8045 50.4705 57.0284 48.9652 57.7954C47.2539 58.6673 45.0137 58.6673 40.5333 58.6673H23.4666C18.9862 58.6673 16.746 58.6673 15.0347 57.7954C13.5294 57.0284 12.3056 55.8045 11.5386 54.2992C10.6666 52.5879 10.6666 50.3477 10.6666 45.8673V18.134C10.6666 13.6536 10.6666 11.4134 11.5386 9.70206C12.3056 8.19676 13.5294 6.97292 15.0347 6.20593C16.746 5.33398 18.9862 5.33398 23.4666 5.33398H32.0314C33.9881 5.33398 34.9664 5.33398 35.8871 5.55503C36.7034 5.751 37.4838 6.07423 38.1996 6.51286C39.0069 7.0076 39.6987 7.6994 41.0823 9.08302L49.5843 17.5849C50.9679 18.9686 51.6597 19.6604 52.1544 20.4677C52.593 21.1835 52.9163 21.9638 53.1123 22.7801C53.3333 23.7008 53.3333 24.6792 53.3333 26.6359Z" stroke="#EAECF0" stroke-width="5.33333" stroke-linecap="round" stroke-linejoin="round"/>
</g>
</svg>
